<?xml version="1.0" encoding="utf-8"?>
<!-- Generator: Adobe Illustrator 15.0.0, SVG Export Plug-In . SVG Version: 6.00 Build 0)  -->
<!DOCTYPE svg PUBLIC "-//W3C//DTD SVG 1.1//EN" "http://www.w3.org/Graphics/SVG/1.1/DTD/svg11.dtd">
<svg version="1.1" id="Layer_1" xmlns="http://www.w3.org/2000/svg" xmlns:xlink="http://www.w3.org/1999/xlink" x="0px" y="0px"
	 width="180px" height="88px" viewBox="0 0 180 88" enable-background="new 0 0 180 88" xml:space="preserve">
<g>
	<g>
		<path d="M23.933,22.786c-5.244,0-9.113-4.128-9.113-9.373c0-5.193,3.843-9.425,9.191-9.425c3.297,0,5.271,1.168,7.088,2.882
			l-1.402,1.505c-1.532-1.454-3.246-2.493-5.712-2.493c-4.024,0-7.036,3.246-7.036,7.478c0,4.232,3.037,7.529,7.036,7.529
			c2.492,0,4.128-0.961,5.868-2.623l1.35,1.324C29.307,21.514,27.23,22.786,23.933,22.786z"/>
		<path d="M54.363,22.475h-2.207l-2.129-4.803h-9.892l-2.155,4.803h-2.103L44.159,4.17h1.921L54.363,22.475z M45.094,6.559
			l-4.154,9.27h8.282L45.094,6.559z"/>
		<path d="M65.137,22.475H63.06V6.195h-6.101V4.3h14.279v1.895h-6.102V22.475z"/>
		<path d="M92.319,22.475h-2.207l-2.129-4.803h-9.892l-2.154,4.803h-2.104L82.116,4.17h1.921L92.319,22.475z M83.051,6.559
			l-4.154,9.27h8.282L83.051,6.559z"/>
		<path d="M98.553,4.3h2.051v16.279h10.229v1.896h-12.28V4.3z"/>
		<path d="M121.657,22.475h-2.077v-7.192L112.024,4.3h2.493l6.128,9.088l6.179-9.088h2.389l-7.556,10.957V22.475z"/>
		<path d="M140.736,12.401c4.051,0.882,5.921,2.362,5.921,5.167c0,3.141-2.597,5.166-6.206,5.166c-2.881,0-5.244-0.96-7.425-2.908
			l1.272-1.506c1.894,1.714,3.712,2.571,6.231,2.571c2.439,0,4.049-1.273,4.049-3.116c0-1.714-0.908-2.674-4.724-3.479
			c-4.181-0.908-6.103-2.258-6.103-5.271c0-2.908,2.52-4.984,5.972-4.984c2.648,0,4.544,0.752,6.387,2.232l-1.193,1.584
			c-1.688-1.376-3.375-1.974-5.246-1.974c-2.362,0-3.868,1.299-3.868,2.96C135.804,10.583,136.74,11.544,140.736,12.401z"/>
		<path d="M159.974,22.475h-2.077V6.195h-6.101V4.3h14.279v1.895h-6.102V22.475z"/>
	</g>
	<g>
		<path fill="#DC2E27" d="M23.444,84.012l-1.084-2.658h-5.014l-1.084,2.658h-2.66l5.081-11.941h2.405l5.082,11.941H23.444z
			 M19.854,75.203l-1.576,3.846h3.15L19.854,75.203z"/>
		<path fill="#DC2E27" d="M43.694,74.559v9.453h-2.608v-9.453h-3.607v-2.404h9.823v2.404H43.694z"/>
		<path fill="#DC2E27" d="M61.152,84.012V72.154h2.608v9.484h5.911v2.373H61.152z"/>
		<path fill="#DC2E27" d="M92.312,84.012l-1.084-2.658h-5.014l-1.084,2.658h-2.659l5.081-11.941h2.405l5.082,11.941H92.312z
			 M88.721,75.203l-1.575,3.846h3.15L88.721,75.203z"/>
		<path fill="#DC2E27" d="M117.035,84.012l-5.741-7.539v7.539h-2.575V72.154h2.405l5.556,7.301v-7.301h2.574v11.857H117.035z"/>
		<path fill="#DC2E27" d="M139.319,74.559v9.453h-2.608v-9.453h-3.607v-2.404h9.824v2.404H139.319z"/>
		<path fill="#DC2E27" d="M164.077,84.012l-1.085-2.658h-5.014l-1.085,2.658h-2.659l5.082-11.941h2.405l5.081,11.941H164.077z
			 M160.484,75.203l-1.574,3.846h3.15L160.484,75.203z"/>
	</g>
	<g>
		<path d="M19.848,33.044v5.551h12.444v5.216H19.848v10.096H14.11v-26.08h19.858v5.216H19.848z"/>
		<path d="M54.941,54.357c-8.047,0-13.822-6-13.822-13.414v-0.074c0-7.415,5.85-13.488,13.897-13.488
			c8.048,0,13.823,5.999,13.823,13.413v0.075C68.839,48.283,62.989,54.357,54.941,54.357z M62.84,40.869
			c0-4.471-3.278-8.197-7.899-8.197c-4.62,0-7.824,3.651-7.824,8.122v0.075c0,4.471,3.279,8.197,7.898,8.197
			c4.62,0,7.824-3.652,7.824-8.123V40.869z"/>
		<path d="M93.5,53.908l-5.588-8.346h-4.509v8.346h-5.737v-26.08h11.922c6.148,0,9.835,3.242,9.835,8.607v0.074
			c0,4.21-2.272,6.855-5.588,8.085l6.371,9.314H93.5z M93.612,36.733c0-2.459-1.714-3.726-4.508-3.726h-5.701v7.489h5.812
			c2.794,0,4.397-1.491,4.397-3.688V36.733z"/>
		<path d="M119.205,54.318c-7.005,0-11.289-3.912-11.289-11.587V27.828h5.738v14.755c0,4.247,2.123,6.446,5.625,6.446
			s5.626-2.125,5.626-6.261v-14.94h5.737v14.717C130.643,50.443,126.209,54.318,119.205,54.318z"/>
		<path d="M160.596,53.908V36.882l-7.341,11.139h-0.147l-7.267-11.028v16.915h-5.625v-26.08h6.185l6.854,11.029l6.856-11.029h6.186
			v26.08H160.596z"/>
	</g>
	<g>
		<line fill="#FFFFFF" x1="13.198" y1="64.484" x2="166.73" y2="64.484"/>
		<rect x="13.198" y="64.201" width="153.533" height="0.564"/>
	</g>
</g>
</svg>
